# xmcd
#
# Track frame offsets:
#	150
#	33867
#	54168
#	141704
#	168693
#	180959
#	199095
#
# Disc length: 3040 seconds
#
# Revision: 1
# Processed by: cddbd v1.5.2PL0 Copyright (c) Steve Scherf et al.
# Submitted via: audiograbber 1.83.01
#
DISCID=5c0bde07
DTITLE=Grateful Dead - 71-04-13 Catholic Youth Centre, Scranton PA
DYEAR=1900
DGENRE=
TTITLE0=Truckin'
TTITLE1=Drums
TTITLE2=Good Lovin'
TTITLE3=I Second That Emotion
TTITLE4=Greatest Story Ever Told
TTITLE5=Johnny B Goode
TTITLE6=Uncle John's Band
EXTD=
EXTT0=
EXTT1=
EXTT2=
EXTT3=
EXTT4=
EXTT5=
EXTT6=
PLAYORDER=
